0
SECTION
2
ENTITIES
0
LINE
8
Layer_Black
62
0
10
0
20
0
30
0.0
11
100
21
0
31
0.0
0
LINE
8
Layer_Black
62
0
10
100
20
0
30
0.0
11
100
21
50
31
0.0
0
LINE
8
Layer_Black
62
0
10
100
20
50
30
0.0
11
0
21
50
31
0.0
0
LINE
8
Layer_Black
62
0
10
0
20
50
30
0.0
11
0
21
0
31
0.0
0
ARC
8
Layer_Red
62
1
10
3
20
3
40
6
50
0
51
90
0
ARC
8
Layer_Red
62
1
10
97
20
3
40
6
50
90
51
180
0
ARC
8
Layer_Red
62
1
10
97
20
47
40
6
50
180
51
270
0
ARC
8
Layer_Red
62
1
10
3
20
47
40
6
50
270
51
360
0
LINE
8
Layer_Red
62
1
10
3
20
9
30
0.0
11
3
21
41
31
0.0
0
LINE
8
Layer_Red
62
1
10
9
20
3
30
0.0
11
91
21
3
31
0.0
0
LINE
8
Layer_Red
62
1
10
97
20
9
30
0.0
11
97
21
41
31
0.0
0
LINE
8
Layer_Red
62
1
10
9
20
47
30
0.0
11
91
21
47
31
0.0
0
ARC
8
Layer_Blue
62
10
29.0
20
38
40
6
50
0
51
90
0
ARC
8
Layer_Blue
62
10
15
20
38
40
6
50
90
51
180
0
ARC
8
Layer_Blue
62
10
15
20
12
40
6
50
180
51
270
0
ARC
8
Layer_Blue
62
10
29.0
20
12
40
6
50
270
51
360
0
LINE
8
Layer_Blue
62
10
15
20
6
30
0.0
11
29.0
21
6
31
0.0
0
LINE
8
Layer_Blue
62
10
35.0
20
12
30
0.0
11
35.0
21
38
31
0.0
0
LINE
8
Layer_Blue
62
10
29.0
20
44
30
0.0
11
15
21
44
31
0.0
0
LINE
8
Layer_Blue
62
10
9
20
38
30
0.0
11
9
21
12
31
0.0
0
ARC
8
Layer_Blue
62
10
85.0
20
38
40
6
50
0
51
90
0
ARC
8
Layer_Blue
62
10
71.0
20
38
40
6
50
90
51
180
0
ARC
8
Layer_Blue
62
10
71.0
20
12
40
6
50
180
51
270
0
ARC
8
Layer_Blue
62
10
85.0
20
12
40
6
50
270
51
360
0
LINE
8
Layer_Blue
62
10
71.0
20
6
30
0.0
11
85.0
21
6
31
0.0
0
LINE
8
Layer_Blue
62
10
91.0
20
12
30
0.0
11
91.0
21
38
31
0.0
0
LINE
8
Layer_Blue
62
10
85.0
20
44
30
0.0
11
71.0
21
44
31
0.0
0
LINE
8
Layer_Blue
62
10
65.0
20
38
30
0.0
11
65.0
21
12
31
0.0
0
ARC
8
Layer_Dark_Gray
62
8
10
50.0
20
25.0
40
12
50
0
51
90
0
ARC
8
Layer_Dark_Gray
62
8
10
50.0
20
25.0
40
12
50
90
51
180
0
ARC
8
Layer_Dark_Gray
62
8
10
50.0
20
25.0
40
12
50
180
51
270
0
ARC
8
Layer_Dark_Gray
62
8
10
50.0
20
25.0
40
12
50
270
51
360
0
ARC
8
Layer_Light_Gray
62
9
10
50.0
20
30.0
40
3.175
50
0
51
90
0
ARC
8
Layer_Light_Gray
62
9
10
50.0
20
30.0
40
3.175
50
90
51
180
0
ARC
8
Layer_Light_Gray
62
9
10
50.0
20
30.0
40
3.175
50
180
51
270
0
ARC
8
Layer_Light_Gray
62
9
10
50.0
20
30.0
40
3.175
50
270
51
360
0
ARC
8
Layer_Light_Gray
62
9
10
50.0
20
30.0
40
4.7625
50
90
51
180
0
ARC
8
Layer_Light_Gray
62
9
10
50.0
20
30.0
40
4.7625
50
0
51
90
0
LINE
8
Layer_Light_Gray
62
9
10
46.825
20
26.450242085719083
30
0.0
11
46.825
21
18.4125
31
0.0
0
LINE
8
Layer_Light_Gray
62
9
10
53.175
20
26.450242085719083
30
0.0
11
53.175
21
18.4125
31
0.0
0
ARC
8
Layer_Light_Gray
62
9
10
50.0
20
18.4125
40
3.175
50
180
51
270
0
ARC
8
Layer_Light_Gray
62
9
10
50.0
20
18.4125
40
3.175
50
270
51
360
0
ARC
8
Layer_Light_Gray
62
9
10
50.0
20
30.0
40
4.7625
50
180
51
228.1896851042214
0
ARC
8
Layer_Light_Gray
62
9
10
50.0
20
30.0
40
4.7625
50
311.8103148957786
51
360
0
ENDSEC
0
EOF
